# xmcd
# 
# Track frame offsets:
#     150
#     8892
#     16849
#     25218
#     37987
#     47893
#     59057
#     73172
#     83659
#     93278
#     104395
#     111661
#     119198
#     134247
#     147765
#     155015
#     163393
#     172141
#     186097
#     199702
# 
# Disc length: 2751
# 
# Revision: 2
# Processed by: cddbd v1.5.2PL0 Copyright (c) Steve Scherf et al.
# Submitted via: fre:ac v1.0.17
# 
DISCID=2f0abd14
DTITLE=Ray Campi - Rockabilly Rebellion
DYEAR=0
DGENRE=
TTITLE0=Rockabilly Music
TTITLE1=Don´t Blame It On Me
TTITLE2=Love Me
TTITLE3=Sweet Woman Blues
TTITLE4=Rockin´ and Rollin´ Towards Tennessee
TTITLE5=It´s Blowin´ Your Way
TTITLE6=Rockin´ At The Ritz
TTITLE7=Eager Boy
TTITLE8=Tore Up
TTITLE9=Pinball Millionaire
TTITLE10=BooHoo
TTITLE11=I Need Love
TTITLE12=Rockabilly Rebel
TTITLE13=Pretty Mama
TTITLE14=No Way Out
TTITLE15=Don´t Come Knockin´
TTITLE16=Don´t Let The Bad Times Get You Down
TTITLE17=Quit Your Triflin´
TTITLE18=How Low Do You Fell
TTITLE19=Recipe For Love
EXTD=
EXTT0=
EXTT1=
EXTT2=
EXTT3=
EXTT4=
EXTT5=
EXTT6=
EXTT7=
EXTT8=
EXTT9=
EXTT10=
EXTT11=
EXTT12=
EXTT13=
EXTT14=
EXTT15=
EXTT16=
EXTT17=
EXTT18=
EXTT19=
PLAYORDER=
